<?xml version="1.0" encoding="utf-8"?>
<!-- Generator: Adobe Illustrator 16.0.0, SVG Export Plug-In . SVG Version: 6.00 Build 0)  -->
<!DOCTYPE svg PUBLIC "-//W3C//DTD SVG 1.1//EN" "http://www.w3.org/Graphics/SVG/1.1/DTD/svg11.dtd">
<svg version="1.1" id="Layer_1" xmlns="http://www.w3.org/2000/svg" xmlns:xlink="http://www.w3.org/1999/xlink" x="0px" y="0px"
	 width="600px" height="600px" viewBox="0 0 600 600" enable-background="new 0 0 600 600" xml:space="preserve">
<g>
	<path fill="none" stroke="#7AC943" stroke-width="3" stroke-miterlimit="10" d="M128.372,319.544c0,0-21.546-9.511-21.546-19.57
		c0.001-10.061-4.559-21.395-4.316-22.263c0.243-0.869,5.685,8.139,7.502,11.688c1.816,3.548-5.472-13.93-5.502-18.851
		c-0.032-4.922,1.235-5.271,2.181-7.814c0.943-2.545-2.034-23.732,0.04-23.62c2.076,0.11,4.2,8.425,4.504,7.339
		c0.302-1.086-1.506-13.055,0.802-15.453c2.308-2.398,0.575-17.154,3.17-18.068c2.595-0.913,0.137-13.064-0.45-17.674
		c-0.585-4.608-13.083-3.417-7.762-14.099c5.319-10.682,13.074-18.345,15.567-15.543c2.494,2.802,4.751,2.261,9.208-2.812
		c4.458-5.074-0.207-18.542,5.073-25.726c5.281-7.183,9.865-8.52,10.864-6.231c1,2.288-1.893,0.077-2.959,3.056
		c-1.064,2.978-2.261,4.75-1.641,10.071c0.621,5.321-0.505,8.516,1.475,8.133c1.979-0.383-1.701-9.834,2.681-12.121
		s4.412-9.105,9.345-6.655c4.932,2.45,9.812,5.918,8.384,0.138c-1.428-5.78-7.092-10.637-12.569-10.293
		c-5.477,0.344-11.888,4.872-9.976-1.146c1.914-6.018,1.919-10.228,2.934-11.349c1.015-1.12-0.338-9.687-3.443-6.108
		c-3.104,3.579-3.325,7.729-4.931,8.451c-1.606,0.722-4.216-5.856-2.272-6.952c1.942-1.095,2.695-4.629,5.942-5.361
		c3.245-0.732,4.492-4.361,5.85-0.005c1.358,4.357,1.43,5.78,2.297,6.023c0.869,0.242,4.291,3.069,3.838-0.333
		c-0.456-3.403,1.469-7.78,2.712-7.2c1.24,0.581-1.248,3.63-0.466,5.018c0.782,1.388,1.549,5.346,3.205,2.767
		s2.775-11.625,6.7-13.104c3.921-1.479,6.532-4.963,7.617-4.661c1.086,0.303-1.389-9.278,1.23-11.12
		c2.62-1.844,8.486-4.418,10.32-3.438c1.832,0.979,8.093,2.024,10.007,6.067c1.912,4.044,3.351,11.464,4.278,11.49
		c0.93,0.025,5.806-2.357,7.412-3.079c1.604-0.722-6.366-3.18-5.458-6.437c0,0-0.576-13.03,5.181-13.529
		c5.755-0.5,9.187,3.968,9.777,4.367c0.591,0.399,4.498-8.572,7.78-8.592c3.281-0.02,10.479,2.691,10.959,5.166
		c0.479,2.473,2.651,3.078,4.073,3.007c1.424-0.07,0.697-7.526,4.55-10.429c3.852-2.902,9.696-8.758,11.408-7.345
		c1.711,1.414,5.932,3.059,8.612,1c2.681-2.06,9.06-1.449,9.06-1.449s2.219-7.103,3.39-7.946c1.171-0.842,7.052,4.075,6.71,8.659
		c-0.345,4.583,2.088,7.602,2.775,8.496c0.687,0.894,2.201-4.533,4.467-3.433c2.267,1.102,1.853,4.261,4.438,1.707
		c2.583-2.554,0.941-8.403,6.635-8.682c5.693-0.279,17.298-0.783,18.187,2.74s0.611,3.679,3.988,4.154s3.388-3.752,7.418-2.267
		c4.031,1.484,6.202,2.09,6.898,4.624c0.697,2.534,3.393,7.967,3.09,9.051c-0.303,1.085,2.74,7.785,4.78,7.184
		c2.039-0.6,10.354-2.726,16.923,3.084c6.566,5.81,9.202,1.399,9.262,1.182c0.061-0.217-5.422-5.725-2.307-7.664
		c3.115-1.938,13.367-0.949,12.832,2.646c-0.534,3.595,13.086,3.417,12.656,9.147c-0.43,5.729,7.077,3.145,9.986,2.786
		c2.906-0.357,14.385,3.781,13.367,9.112c-1.021,5.331-0.172,12.353-1.125,13.257c-0.955,0.904,6.667-7.966,8.307,2.085
		c1.644,10.051,3.294,11.682,20.836,20.087c17.542,8.405-3.723-18.441,19.163-4.947c0,0,7.663,7.754,8.237,10.723
		c0.576,2.968,0.965,10.797,0.939,11.727c-0.025,0.928,3.588,4.745,1.459,10.703c-2.131,5.956-6.223,9.727-6.223,9.727
		s2.532-0.696,4.809,2.045c2.277,2.74,1.666,9.122,1.182,10.858c-0.485,1.736,2.736,1.934,1.282,7.144
		c-1.453,5.209-2.288,5.679-2.544,9.117c-0.258,3.438-3.145,7.077-0.576,7.092c2.57,0.015,5.908-6.072,9.415-4.392
		c3.509,1.682,6.755,0.949,5.022,6.315c-1.73,5.367-6.982,17.472-10.529,19.289c-3.551,1.817-5.705,8.703-4.054,10.333
		c1.649,1.631,1.767,5.407,1.776,7.048c0.01,1.64-0.996,5.337,1.006,5.662c2.003,0.326,1.648,3.269,5.475,1.294
		c3.828-1.974,6.145-2.73,7.154,0.358c1.01,3.09,3.105,6.483,3.863,8.8c0.757,2.317,1.514,4.634-1.278,8.769
		c-2.79,4.135-5.739,7.991-4.79,11.298c0.949,3.306-2.469,6.331,1.594,7.698c4.064,1.368,6.341,4.109,4.358,8.703
		c-1.984,4.594,4.275,5.641,3.802,9.016c-0.477,3.379-9.107,9.158-10.643,11.304c-1.535,2.144,3.932,10.223,1.078,14.574
		c-2.852,4.351-6.873,9.547-9.408,10.241c-2.534,0.697,1.605-0.721,3.084-6.86c1.48-6.138,4.271-10.271,1.691-11.928
		s-5.992-2.842-8.203,0.051c-2.212,2.892-4.936,2.599-8.631,5.779c-3.697,3.181-5.282,7.184-7.529,9.364
		c-2.246,2.181-10.574,13.445-10.574,13.445"/>
	<path fill="none" stroke="#7AC943" stroke-width="3" stroke-miterlimit="10" d="M221.558,537.238c0,0,38.778,15.414,60.82,9.088
		c22.044-6.326,76.548-53.512,76.548-53.512s31.081-30.322,33.823-37.355s15.144-54.269,15.144-54.269s0.708,14.236,9.121,6.445
		c8.415-7.792,24.568-32.141,25.578-35.758c1.009-3.619,4.408-21.388,6.463-23.152c2.053-1.769,3.451-1.783,4.58-3.028
		c1.125-1.245-11.553,10.061-14.446,9.252c-2.894-0.808-2.636-11.694-2.636-11.694l-15.619,14.001l-6.798-31.535
		c0,0,7.305-20.58,5.706-28.824c-1.6-8.248-20.918-28.457-20.918-28.457s9.609-31.635,5.84-40.485
		c-3.768-8.852-14.588-39.949-19.535-38.99c-4.947,0.958-19.268,4.763-24.973,0.05c-5.703-4.71-29.734-19.216-55.312-16.996
		c-25.576,2.222-11.526-11.796-35.976-10.82c-24.451,0.976-58.475,5.519-69.549,17.248c-11.071,11.729-25.475,18.629-27.342,33.706
		c-1.87,15.077,2.791,17.938-1.044,31.686c-3.837,13.747-20.272,28.658-19.012,39.149c1.258,10.49-0.055,31.962-2.763,44.465
		c-2.711,12.503-2.79,4.709-9.654-4.225c-6.867-8.937-3.622-17.115-6.651-6.26c-3.028,10.854-9.407-9.17-7.539,9.289
		c1.866,18.46,0.201,32.813,4.089,44.036c3.887,11.226,14.94,13.53,18.239,12.892c3.3-0.64,2.407,38.887,5.336,45.164
		c2.928,6.275,25.055,63.928,39.072,77.979c14.017,14.051,30.354,31.948,30.354,31.948"/>
	<line fill="none" stroke="#7AC943" stroke-width="3" stroke-miterlimit="10" x1="409.82" y1="401.729" x2="422.86" y2="357.793"/>
	<line fill="none" stroke="#7AC943" stroke-width="3" stroke-miterlimit="10" x1="149.669" y1="383.724" x2="151.185" y2="327.99"/>
	<path fill="none" stroke="#7AC943" stroke-width="3" stroke-miterlimit="10" d="M173.86,297.038
		c6.842-30.379,187.238-18.643,215.591,20.612"/>
	<path fill="none" stroke="#7AC943" stroke-width="3" stroke-miterlimit="10" d="M244.632,292.454c0,0,80.31,8.607,76.606,10.558
		c-5.154,2.715-13.131,11.837-16.906,11.954c-3.775,0.114-28.824-8.747-46.807-3.313
		C255.427,312.286,243.239,297.447,244.632,292.454"/>
	<path fill="none" stroke="#7AC943" stroke-width="3" stroke-miterlimit="10" d="M154.086,304.436l15.319,0.602
		c0,0-9.934,15.479-1.884,33.167c8.049,17.688,14.247,25.658,27.406,30.07c13.159,4.415,32.157,5.505,44.129-3.439
		c11.972-8.942,18.632-18.977,20.667-28.782c2.035-9.805-3.689-19.476,0.489-19.362c0,0,11.619-2.897,19.104-0.985
		c7.487,1.912,20.346,3.31,19.407,5.416s-9.685,14.582-3.715,28.093c5.968,13.512,11.524,31.645,40.211,37.634
		c28.688,5.987,42.665-11.083,43.173-11.643c0.507-0.562,15.427-13.148,14.228-28.973c-1.2-15.826-1.876-18.12,5.474-16.155
		c7.349,1.962,9.285,1.625,9.285,1.625l8.358-5.74"/>
	<line fill="none" stroke="#7AC943" stroke-width="3" stroke-miterlimit="10" x1="173.86" y1="297.038" x2="154.321" y2="299.418"/>
	<line fill="none" stroke="#7AC943" stroke-width="3" stroke-miterlimit="10" x1="389.451" y1="317.65" x2="405.588" y2="319.356"/>
	
		<line fill="none" stroke="#7AC943" stroke-width="3" stroke-miterlimit="10" x1="405.588" y1="319.356" x2="420.693" y2="310.041"/>
	
		<ellipse transform="matrix(0.9632 0.2688 -0.2688 0.9632 95.8939 -45.0826)" fill="none" stroke="#7AC943" stroke-width="3" stroke-miterlimit="10" cx="212.583" cy="327.65" rx="40.566" ry="36.879"/>
	
		<ellipse transform="matrix(0.9722 0.234 -0.234 0.9722 89.785 -70.7531)" fill="none" stroke="#7AC943" stroke-width="3" stroke-miterlimit="10" cx="343.068" cy="343.006" rx="43.271" ry="36.88"/>
</g>
<g>
	<path fill="none" stroke="#FF1D25" stroke-width="3" stroke-miterlimit="10" d="M128.372,314.544c0,0-21.546-9.511-21.546-19.57
		c0.001-10.061-4.559-21.395-4.316-22.263c0.243-0.869,5.685,8.139,7.502,11.688c1.816,3.548-5.472-13.93-5.502-18.851
		c-0.032-4.922,1.235-5.271,2.181-7.814c0.943-2.545-2.034-23.732,0.04-23.62c2.076,0.11,4.2,8.425,4.504,7.339
		c0.302-1.086-1.506-13.055,0.802-15.453c2.308-2.398,0.575-17.154,3.17-18.068c2.595-0.913,0.137-13.064-0.45-17.674
		c-0.585-4.608-13.083-3.417-7.762-14.099c5.319-10.682,13.074-18.345,15.567-15.543c2.494,2.802,4.751,2.261,9.208-2.812
		c4.458-5.074-0.207-18.542,5.073-25.726c5.281-7.183,9.865-8.52,10.864-6.231c1,2.288-1.893,0.077-2.959,3.056
		c-1.064,2.978-2.261,4.75-1.641,10.071c0.621,5.321-0.505,8.516,1.475,8.133c1.979-0.383-1.701-9.834,2.681-12.121
		s4.412-9.105,9.345-6.655c4.932,2.45,9.812,5.918,8.384,0.138c-1.428-5.78-7.092-10.637-12.569-10.293
		c-5.477,0.344-11.888,4.872-9.976-1.146c1.914-6.018,1.919-10.228,2.934-11.349c1.015-1.12-0.338-9.687-3.443-6.108
		c-3.104,3.579-3.325,7.729-4.931,8.451c-1.606,0.722-4.216-5.856-2.272-6.952c1.942-1.095,2.695-4.629,5.942-5.361
		c3.245-0.732,4.492-4.361,5.85-0.005c1.358,4.357,1.43,5.78,2.297,6.023c0.869,0.242,4.291,3.069,3.838-0.333
		c-0.456-3.403,1.469-7.78,2.712-7.2c1.24,0.581-1.248,3.63-0.466,5.018c0.782,1.388,1.549,5.346,3.205,2.767
		s2.775-11.625,6.7-13.104c3.921-1.479,6.532-4.963,7.617-4.661c1.086,0.303-1.389-9.278,1.23-11.12
		c2.62-1.844,8.486-4.418,10.32-3.438c1.832,0.979,8.093,2.024,10.007,6.067c1.912,4.044,3.351,11.464,4.278,11.49
		c0.93,0.025,5.806-2.357,7.412-3.079c1.604-0.722-6.366-3.18-5.458-6.437c0,0-0.576-13.03,5.181-13.529
		c5.755-0.5,9.187,3.968,9.777,4.367c0.591,0.399,4.498-8.572,7.78-8.592c3.281-0.02,10.479,2.691,10.959,5.166
		c0.479,2.473,2.651,3.078,4.073,3.007c1.424-0.07,0.697-7.526,4.55-10.429c3.852-2.902,9.696-8.758,11.408-7.345
		c1.711,1.414,5.932,3.059,8.612,1c2.681-2.06,9.06-1.449,9.06-1.449s2.219-7.103,3.39-7.946c1.171-0.842,7.052,4.075,6.71,8.659
		c-0.345,4.583,2.088,7.602,2.775,8.496c0.687,0.894,2.201-4.533,4.467-3.433c2.267,1.102,1.853,4.261,4.438,1.707
		c2.583-2.554,0.941-8.403,6.635-8.682c5.693-0.279,17.298-0.783,18.187,2.74s0.611,3.679,3.988,4.154s3.388-3.752,7.418-2.267
		c4.031,1.484,6.202,2.09,6.898,4.624c0.697,2.534,3.393,7.967,3.09,9.051c-0.303,1.085,2.74,7.785,4.78,7.184
		c2.039-0.6,10.354-2.726,16.923,3.084c6.566,5.81,9.202,1.399,9.262,1.182c0.061-0.217-5.422-5.725-2.307-7.664
		c3.115-1.938,13.367-0.949,12.832,2.646c-0.534,3.595,13.086,3.417,12.656,9.147c-0.43,5.729,7.077,3.145,9.986,2.786
		c2.906-0.357,14.385,3.781,13.367,9.112c-1.021,5.331-0.172,12.353-1.125,13.257c-0.955,0.904,6.667-7.966,8.307,2.085
		c1.644,10.051,3.294,11.682,20.836,20.087c17.542,8.405-3.723-18.441,19.163-4.947c0,0,7.663,7.754,8.237,10.723
		c0.576,2.968,0.965,10.797,0.939,11.727c-0.025,0.928,3.588,4.745,1.459,10.703c-2.131,5.956-6.223,9.727-6.223,9.727
		s2.532-0.696,4.809,2.045c2.277,2.74,1.666,9.122,1.182,10.858c-0.485,1.736,2.736,1.934,1.282,7.144
		c-1.453,5.209-2.288,5.679-2.544,9.117c-0.258,3.438-3.145,7.077-0.576,7.092c2.57,0.015,5.908-6.072,9.415-4.392
		c3.509,1.682,6.755,0.949,5.022,6.315c-1.73,5.367-6.982,17.472-10.529,19.289c-3.551,1.817-5.705,8.703-4.054,10.333
		c1.649,1.631,1.767,5.407,1.776,7.048c0.01,1.64-0.996,5.337,1.006,5.662c2.003,0.326,1.648,3.269,5.475,1.294
		c3.828-1.974,6.145-2.73,7.154,0.358c1.01,3.09,3.105,6.483,3.863,8.8c0.757,2.317,1.514,4.634-1.278,8.769
		c-2.79,4.135-5.739,7.991-4.79,11.298c0.949,3.306-2.469,6.331,1.594,7.698c4.064,1.368,6.341,4.109,4.358,8.703
		c-1.984,4.594,4.275,5.64,3.802,9.016c-0.477,3.379-9.107,9.158-10.643,11.304c-1.535,2.144,3.932,10.223,1.078,14.574
		c-2.852,4.351-6.873,9.547-9.408,10.241c-2.534,0.697,1.605-0.721,3.084-6.86c1.48-6.138,4.271-10.271,1.691-11.928
		s-5.992-2.842-8.203,0.051c-2.212,2.892-4.936,2.599-8.631,5.779c-3.697,3.181-5.282,7.184-7.529,9.364
		c-2.246,2.181-10.574,13.445-10.574,13.445"/>
	<path fill="none" stroke="#FF1D25" stroke-width="3" stroke-miterlimit="10" d="M221.558,532.238c0,0,38.778,15.414,60.82,9.088
		c22.044-6.326,76.548-53.512,76.548-53.512s31.081-30.322,33.823-37.355s15.144-54.269,15.144-54.269s0.708,14.236,9.121,6.445
		c8.415-7.792,24.568-32.141,25.578-35.758c1.009-3.619,4.408-21.388,6.463-23.152c2.053-1.769,3.451-1.783,4.58-3.028
		c1.125-1.245-11.553,10.061-14.446,9.252c-2.894-0.808-2.636-11.694-2.636-11.694l-15.619,14.001l-6.798-31.535
		c0,0,7.305-20.58,5.706-28.824c-1.6-8.248-20.918-28.457-20.918-28.457s9.609-31.635,5.84-40.485
		c-3.768-8.852-14.588-39.949-19.535-38.99c-4.947,0.958-19.268,4.763-24.973,0.05c-5.703-4.71-29.734-19.216-55.312-16.996
		c-25.576,2.222-11.526-11.796-35.976-10.82c-24.451,0.976-58.475,5.519-69.549,17.248c-11.071,11.729-25.475,18.629-27.342,33.706
		c-1.87,15.077,2.791,17.938-1.044,31.686c-3.837,13.747-20.272,28.658-19.012,39.149c1.258,10.49-0.055,31.962-2.763,44.465
		c-2.711,12.503-2.79,4.709-9.654-4.225c-6.867-8.937-3.622-17.115-6.651-6.26c-3.028,10.854-9.407-9.17-7.539,9.289
		c1.866,18.46,0.201,32.813,4.089,44.036c3.887,11.226,14.94,13.53,18.239,12.892c3.3-0.64,2.407,38.887,5.336,45.164
		c2.928,6.275,25.055,63.928,39.072,77.979c14.017,14.051,30.354,31.948,30.354,31.948"/>
	<line fill="none" stroke="#FF1D25" stroke-width="3" stroke-miterlimit="10" x1="409.82" y1="396.729" x2="422.86" y2="352.793"/>
	<line fill="none" stroke="#FF1D25" stroke-width="3" stroke-miterlimit="10" x1="149.669" y1="378.724" x2="151.185" y2="322.99"/>
	<path fill="none" stroke="#FF1D25" stroke-width="3" stroke-miterlimit="10" d="M173.86,292.038
		c6.842-30.379,187.238-18.643,215.591,20.612"/>
	<path fill="none" stroke="#FF1D25" stroke-width="3" stroke-miterlimit="10" d="M244.632,287.454c0,0,80.31,8.607,76.606,10.558
		c-5.154,2.714-13.131,11.836-16.906,11.954c-3.775,0.114-28.824-8.747-46.807-3.313
		C255.427,307.286,243.239,292.447,244.632,287.454"/>
	<path fill="none" stroke="#FF1D25" stroke-width="3" stroke-miterlimit="10" d="M154.086,299.436l15.319,0.601
		c0,0-9.934,15.479-1.884,33.167c8.049,17.688,14.247,25.658,27.406,30.07c13.159,4.415,32.157,5.505,44.129-3.439
		c11.972-8.942,18.632-18.977,20.667-28.782c2.035-9.805-3.689-19.476,0.489-19.362c0,0,11.619-2.897,19.104-0.985
		c7.487,1.912,20.346,3.31,19.407,5.416s-9.685,14.582-3.715,28.093c5.968,13.512,11.524,31.645,40.211,37.634
		c28.688,5.987,42.665-11.083,43.173-11.643c0.507-0.562,15.427-13.148,14.228-28.973c-1.2-15.826-1.876-18.12,5.474-16.155
		c7.349,1.962,9.285,1.625,9.285,1.625l8.358-5.74"/>
	<line fill="none" stroke="#FF1D25" stroke-width="3" stroke-miterlimit="10" x1="173.86" y1="292.038" x2="154.321" y2="294.418"/>
	<line fill="none" stroke="#FF1D25" stroke-width="3" stroke-miterlimit="10" x1="389.451" y1="312.65" x2="405.588" y2="314.356"/>
	
		<line fill="none" stroke="#FF1D25" stroke-width="3" stroke-miterlimit="10" x1="405.588" y1="314.356" x2="420.693" y2="305.041"/>
	
		<ellipse transform="matrix(0.9632 0.2688 -0.2688 0.9632 94.5499 -45.2666)" fill="none" stroke="#FF1D25" stroke-width="3" stroke-miterlimit="10" cx="212.583" cy="322.65" rx="40.566" ry="36.879"/>
	
		<ellipse transform="matrix(0.9722 0.234 -0.234 0.9722 88.615 -70.8918)" fill="none" stroke="#FF1D25" stroke-width="3" stroke-miterlimit="10" cx="343.068" cy="338.006" rx="43.271" ry="36.88"/>
</g>
<g>
	<path fill="none" stroke="#3FA9F5" stroke-width="3" stroke-miterlimit="10" d="M131.372,326.544c0,0-21.546-9.511-21.546-19.57
		c0.001-10.061-4.559-21.395-4.316-22.263c0.243-0.869,5.685,8.139,7.502,11.688c1.816,3.548-5.472-13.93-5.502-18.851
		c-0.032-4.922,1.235-5.271,2.181-7.814c0.943-2.545-2.034-23.732,0.04-23.62c2.076,0.11,4.2,8.425,4.504,7.339
		c0.302-1.086-1.506-13.055,0.802-15.453c2.308-2.398,0.575-17.154,3.17-18.068c2.595-0.913,0.137-13.064-0.45-17.674
		c-0.585-4.608-13.083-3.417-7.762-14.099c5.319-10.682,13.074-18.345,15.567-15.543c2.494,2.802,4.751,2.261,9.208-2.812
		c4.458-5.074-0.207-18.542,5.073-25.726c5.281-7.183,9.865-8.52,10.864-6.231c1,2.288-1.893,0.077-2.959,3.056
		c-1.064,2.978-2.261,4.75-1.641,10.071c0.621,5.321-0.505,8.516,1.475,8.133c1.979-0.383-1.701-9.834,2.681-12.121
		s4.412-9.105,9.345-6.655c4.932,2.45,9.812,5.918,8.384,0.138c-1.428-5.78-7.092-10.637-12.569-10.293
		c-5.477,0.344-11.888,4.872-9.976-1.146c1.914-6.018,1.919-10.228,2.934-11.349c1.015-1.12-0.338-9.687-3.443-6.108
		c-3.104,3.579-3.325,7.729-4.931,8.451c-1.606,0.722-4.216-5.856-2.272-6.952c1.942-1.095,2.695-4.629,5.942-5.361
		c3.245-0.732,4.492-4.361,5.85-0.005c1.358,4.357,1.43,5.78,2.297,6.023c0.869,0.242,4.291,3.069,3.838-0.333
		c-0.456-3.403,1.469-7.78,2.712-7.2c1.24,0.581-1.248,3.63-0.466,5.018c0.782,1.388,1.549,5.346,3.205,2.767
		s2.775-11.625,6.7-13.104c3.921-1.479,6.532-4.963,7.617-4.661c1.086,0.303-1.389-9.278,1.23-11.12
		c2.62-1.844,8.486-4.418,10.32-3.438c1.832,0.979,8.093,2.024,10.007,6.067c1.912,4.044,3.351,11.464,4.278,11.49
		c0.93,0.025,5.806-2.357,7.412-3.079c1.604-0.722-6.366-3.18-5.458-6.437c0,0-0.576-13.03,5.181-13.529
		c5.755-0.5,9.187,3.968,9.777,4.367c0.591,0.399,4.498-8.572,7.78-8.592c3.281-0.02,10.479,2.691,10.959,5.166
		c0.479,2.473,2.651,3.078,4.073,3.007c1.424-0.07,0.697-7.526,4.55-10.429c3.852-2.902,9.696-8.758,11.408-7.345
		c1.711,1.414,5.932,3.059,8.612,1c2.681-2.06,9.06-1.449,9.06-1.449s2.219-7.103,3.39-7.946c1.171-0.842,7.052,4.075,6.71,8.659
		c-0.345,4.583,2.088,7.602,2.775,8.496c0.687,0.894,2.201-4.533,4.467-3.433c2.267,1.102,1.853,4.261,4.438,1.707
		c2.583-2.554,0.941-8.403,6.634-8.682s17.299-0.783,18.188,2.74s0.611,3.679,3.988,4.154s3.388-3.752,7.418-2.267
		c4.031,1.484,6.202,2.09,6.898,4.624c0.697,2.534,3.393,7.967,3.09,9.051c-0.303,1.085,2.74,7.785,4.78,7.184
		c2.039-0.6,10.354-2.726,16.923,3.084c6.566,5.81,9.202,1.399,9.262,1.182c0.061-0.217-5.422-5.725-2.307-7.664
		c3.115-1.938,13.367-0.949,12.832,2.646c-0.534,3.595,13.086,3.417,12.656,9.147c-0.43,5.729,7.077,3.145,9.986,2.786
		c2.906-0.357,14.385,3.781,13.367,9.112c-1.021,5.331-0.172,12.353-1.125,13.257c-0.955,0.904,6.667-7.966,8.307,2.085
		c1.644,10.051,3.294,11.682,20.836,20.087c17.542,8.405-3.723-18.441,19.163-4.947c0,0,7.663,7.754,8.237,10.723
		c0.576,2.968,0.965,10.797,0.939,11.727c-0.025,0.928,3.588,4.745,1.459,10.703c-2.131,5.956-6.223,9.727-6.223,9.727
		s2.532-0.696,4.809,2.045c2.277,2.74,1.666,9.122,1.182,10.858c-0.485,1.736,2.736,1.934,1.282,7.144
		c-1.453,5.209-2.288,5.679-2.544,9.117c-0.258,3.438-3.145,7.077-0.576,7.092c2.57,0.015,5.908-6.072,9.415-4.392
		c3.509,1.682,6.755,0.949,5.022,6.315c-1.73,5.367-6.982,17.472-10.529,19.289c-3.551,1.817-5.705,8.703-4.054,10.333
		c1.649,1.631,1.767,5.407,1.776,7.048c0.01,1.64-0.996,5.337,1.006,5.662c2.003,0.326,1.648,3.269,5.475,1.294
		c3.828-1.974,6.145-2.73,7.154,0.358c1.01,3.09,3.105,6.483,3.863,8.8c0.757,2.317,1.514,4.634-1.278,8.769
		c-2.79,4.135-5.739,7.991-4.79,11.298c0.949,3.306-2.469,6.331,1.594,7.698c4.064,1.368,6.341,4.109,4.358,8.703
		c-1.984,4.594,4.275,5.641,3.802,9.016c-0.477,3.379-9.107,9.158-10.643,11.304c-1.535,2.144,3.932,10.223,1.078,14.574
		c-2.852,4.351-6.873,9.547-9.408,10.241c-2.534,0.697,1.605-0.721,3.084-6.86c1.48-6.138,4.271-10.271,1.691-11.928
		s-5.992-2.842-8.203,0.051c-2.212,2.892-4.936,2.599-8.631,5.779c-3.697,3.181-5.282,7.184-7.529,9.364
		c-2.246,2.181-10.574,13.445-10.574,13.445"/>
	<path fill="none" stroke="#3FA9F5" stroke-width="3" stroke-miterlimit="10" d="M224.558,544.238c0,0,38.778,15.414,60.82,9.088
		c22.044-6.326,76.548-53.512,76.548-53.512s31.081-30.322,33.823-37.355s15.144-54.269,15.144-54.269s0.708,14.236,9.121,6.445
		c8.415-7.792,24.568-32.141,25.578-35.758c1.009-3.619,4.408-21.388,6.463-23.152c2.053-1.769,3.451-1.783,4.58-3.028
		c1.125-1.245-11.553,10.061-14.446,9.252c-2.894-0.808-2.636-11.694-2.636-11.694l-15.619,14.001l-6.798-31.535
		c0,0,7.305-20.58,5.706-28.824c-1.6-8.248-20.918-28.457-20.918-28.457s9.609-31.635,5.84-40.485
		c-3.768-8.852-14.588-39.949-19.535-38.99c-4.947,0.958-19.268,4.763-24.973,0.05c-5.703-4.71-29.734-19.216-55.312-16.996
		c-25.576,2.222-11.526-11.796-35.976-10.82c-24.451,0.976-58.475,5.519-69.549,17.248c-11.071,11.729-25.475,18.629-27.342,33.706
		c-1.87,15.077,2.791,17.938-1.044,31.686c-3.837,13.747-20.272,28.658-19.012,39.149c1.258,10.49-0.055,31.962-2.763,44.465
		c-2.711,12.503-2.79,4.709-9.654-4.225c-6.867-8.937-3.622-17.115-6.651-6.26c-3.028,10.854-9.407-9.17-7.539,9.289
		c1.866,18.46,0.201,32.813,4.089,44.036c3.887,11.226,14.94,13.53,18.239,12.892c3.3-0.64,2.407,38.887,5.336,45.164
		c2.928,6.275,25.055,63.928,39.072,77.979c14.017,14.051,30.354,31.948,30.354,31.948"/>
	<line fill="none" stroke="#3FA9F5" stroke-width="3" stroke-miterlimit="10" x1="412.82" y1="408.729" x2="425.86" y2="364.793"/>
	<line fill="none" stroke="#3FA9F5" stroke-width="3" stroke-miterlimit="10" x1="152.669" y1="390.724" x2="154.185" y2="334.99"/>
	<path fill="none" stroke="#3FA9F5" stroke-width="3" stroke-miterlimit="10" d="M176.86,304.038
		c6.842-30.379,187.238-18.643,215.591,20.612"/>
	<path fill="none" stroke="#3FA9F5" stroke-width="3" stroke-miterlimit="10" d="M247.632,299.454c0,0,80.31,8.607,76.606,10.558
		c-5.154,2.715-13.131,11.837-16.906,11.954c-3.775,0.114-28.824-8.747-46.807-3.313
		C258.427,319.286,246.239,304.447,247.632,299.454"/>
	<path fill="none" stroke="#3FA9F5" stroke-width="3" stroke-miterlimit="10" d="M157.086,311.436l15.319,0.602
		c0,0-9.934,15.479-1.884,33.167c8.049,17.688,14.247,25.658,27.406,30.07c13.159,4.415,32.157,5.505,44.129-3.439
		c11.972-8.942,18.632-18.977,20.667-28.782c2.035-9.805-3.689-19.476,0.489-19.362c0,0,11.619-2.897,19.104-0.985
		c7.487,1.912,20.346,3.31,19.407,5.416c-0.939,2.106-9.685,14.582-3.716,28.093c5.968,13.512,11.524,31.645,40.211,37.634
		c28.688,5.987,42.665-11.083,43.173-11.643c0.507-0.562,15.427-13.148,14.228-28.973c-1.2-15.826-1.876-18.12,5.474-16.155
		c7.349,1.962,9.285,1.625,9.285,1.625l8.358-5.74"/>
	<line fill="none" stroke="#3FA9F5" stroke-width="3" stroke-miterlimit="10" x1="176.86" y1="304.038" x2="157.321" y2="306.418"/>
	<line fill="none" stroke="#3FA9F5" stroke-width="3" stroke-miterlimit="10" x1="392.451" y1="324.65" x2="408.588" y2="326.356"/>
	
		<line fill="none" stroke="#3FA9F5" stroke-width="3" stroke-miterlimit="10" x1="408.588" y1="326.356" x2="423.693" y2="317.041"/>
	
		<ellipse transform="matrix(0.9632 0.2688 -0.2688 0.9632 97.8858 -45.6314)" fill="none" stroke="#3FA9F5" stroke-width="3" stroke-miterlimit="10" cx="215.583" cy="334.65" rx="40.566" ry="36.879"/>
	
		<ellipse transform="matrix(0.9722 0.234 -0.234 0.9722 91.5062 -71.2607)" fill="none" stroke="#3FA9F5" stroke-width="3" stroke-miterlimit="10" cx="346.068" cy="350.006" rx="43.271" ry="36.88"/>
</g>
</svg>
